<?xml version="1.0" encoding="utf-8"?>
<!-- Generator: Adobe Illustrator 27.5.0, SVG Export Plug-In . SVG Version: 6.00 Build 0)  -->
<svg version="1.1" id="Capa_1" xmlns="http://www.w3.org/2000/svg" xmlns:xlink="http://www.w3.org/1999/xlink" x="0px" y="0px"
	 viewBox="0 0 2050 2196" style="enable-background:new 0 0 2050 2196;" xml:space="preserve">
<g>
	<g>
			<radialGradient id="SVGID_1_" cx="-1010.7985" cy="-138.8911" r="387.8607" gradientTransform="matrix(2.6419 0 0 2.8306 3695.1235 1491.0278)" gradientUnits="userSpaceOnUse">
			<stop  offset="0" style="stop-color:#316C2A"/>
			<stop  offset="0.9992" style="stop-color:#004213"/>
		</radialGradient>
		<rect x="0.01" y="0" style="fill:url(#SVGID_1_);" width="2049.37" height="2195.766"/>
	</g>
	<g>
		<path style="fill:#FAF2B6;" d="M2049.38,2194.741v-413.286c-3.248,0.09-6.425,0.156-9.441,0.156
			c-110,0-215.249,19.119-324.533,25.554c-157.526,9.279-313.226,33.299-471.044,41.847
			c-149.225,8.084-300.185,1.508-449.561,11.228c-168.833,10.984-323.161-2.721-490.894-21.925
			c-88.385-10.119-178.828-5.063-267.909-5.063c-11.125,0-23.41,0.807-35.988,1.437v360.051H2049.38z"/>
		<path style="opacity:0.5;fill:#F6C89A;" d="M216.167,1958.929c-31.752-2.347-62.706,16.396-94.074,21.489
			c-23.531,3.82-78.915,14.92-122.093,14.819v93.874c66.478-7.38,136.173-13.603,199.202-37.228
			c27.122-10.167,66.78-14.474,64.441-51.654C261.746,1970.329,238.135,1960.553,216.167,1958.929z"/>
		<path style="opacity:0.5;fill:#F6C89A;" d="M1480.015,2078.723c42.412-0.046,167.44-19.267,131.705,54.919
			c-11.902,24.716-33.597,45.052-59.559,62.133h497.228v-294.216c-9.138,0.703-17.752,1.324-25.387,1.583
			c-64.965,2.211-119.229,23.579-177.476,51.641c-91.018,43.847-203.387,54.238-301.203,67.991
			c-83.413,11.728-183.276,3.117-257.662,49.133C1304.909,2098.34,1448.909,2078.756,1480.015,2078.723z"/>
		<path style="opacity:0.5;fill:#F6C89A;" d="M484.086,2144.648c-3.752,33.852,182.48,7.068,211.335,7.063
			c91.613-0.012,184.719,4.559,275.847-3.351c60.597-5.258,132.078-0.59,190.296-17.207c28.17-8.041,76.977-30.054,29.229-44.841
			c-31.671-9.806-79.701-0.012-112.814-0.012c-74.264,0-137.212,13.228-209.863,23.604c-45.872,6.553-85.975-7.313-130.858-13.627
			C705.78,2091.85,491.177,2080.717,484.086,2144.648z"/>
		<path style="opacity:0.6;fill:#FFFFFF;" d="M1796.61,1907.523c25.155-7.512,46.851-26.04,71.582-35.006
			c33.879-12.286,129.758,1.16,122.789-57.623c-59.821-11.047-117.807,5.278-177.406,11.587
			c-34.616,3.667-127.227,19.386-152.352,50.078C1608.261,1941.296,1761.954,1917.866,1796.61,1907.523z"/>
		<path style="opacity:0.6;fill:#FFFFFF;" d="M1547.159,2099.977c15.835-0.835,26.476,5.285,28.998,22.467
			c5.88,39.926-46.669,57.355-75.586,49.619c-17.54-4.69-35.766-12.403-53.911-17.384c-11.498-3.157-44.389-2.083-52.206-12.83
			C1378.508,2119.907,1533.129,2100.713,1547.159,2099.977z"/>
		<path style="opacity:0.6;fill:#FFFFFF;" d="M230.731,1864.16c-24.812-13.773-161.429,4.178-189.267,1.667
			c-14.443-1.303-28.04-0.817-41.464,0.699v73.319c1.946,0.842,3.883,1.718,5.901,2.426
			C38.691,1953.767,266.154,1883.81,230.731,1864.16z"/>
	</g>
</g>
<g>
	<path style="fill:#FAF2B6;" d="M429.676,1554.839c62.075-29.694,93.826,52.194,147.041,52.176
		c72.248-0.01,68.354-81.08,40.002-132.023c-66.054-118.719-252.149-168.57-266.714-306.582
		c-5.694-53.91,0.177-145.11,73.347-140.157c67.34,4.549,81.673,88.607,94.986,140.157c15.704,60.762,34.949,112.242,98.229,133.541
		c72.409,24.373,105.708-5.305,107.196-78.71c1.564-77.52-43.622-128.47-73.669-196.501
		c-22.179-50.204-84.018-133.513-59.185-190.276c33.819-77.301,214.462-125.997,285.847-108.283
		c79.121,19.632,132.79,95.44,147.092,171.836c24.943,133.168,21.534,348.848,186.342,388.572
		c112.299,27.074,227.292-173.916,327.054-73.657c95.899,96.389-187.038,200.314-46.981,253.695
		c40.859,15.57,326.989-107.365,259.033,40.01c-17.414,37.745-128.185,96.338-164.223,120.24
		c-55.343,36.711-119.319,60.956-176.326,94.487c-86.66,50.986-171.264,111.583-272.065,132.013
		c-84.915,17.212-184.501,19.05-271.419,19.85c-99.692,0.923-322.223,71.173-385.448-41.54
		c-30.879-55.055,9.728-125.013-28.307-181.894C426.655,1614.623,351.382,1592.287,429.676,1554.839z"/>
	<g>
		<path style="opacity:0.4;fill:#F6C89A;" d="M618.252,1905.331l-2.688,7.162C616.668,1910.072,617.521,1907.694,618.252,1905.331z"
			/>
		<path style="opacity:0.4;fill:#F6C89A;" d="M1274.197,1562.031c-37.49,13.838-155.075,42.786-136.052-39.578
			c10.525-45.61,86.378-70.931,125.881-83.398c46.946-14.804,130.661-38.89,107.443-105.305
			c-17.348-49.563-196.993,35.685-227.776,54.64c-48.817,30.059-104.462,62.282-160.622,29.868
			c-12.063-6.952-22.684-13.727-31.802-21.002c14.731-58.53,6.495-121.369-10.933-178.215c-3.384-11.052-6.738-21.975-10.086-32.813
			c0.666-4.932,1.291-9.864,1.856-14.811c6.566-57.769-9.663-182.098-81.385-192.77c-31.882-67.509-66.518-142.2-126.37-184.146
			c-10.535-7.381-30.319-21.836-49.685-29.608c-26.587,12.739-49.876,28.083-66.004,45.473
			c-16.693,93.426,131.014,249.51,180.401,633.636c-7.888-2.266-15.301-6.293-21.756-12.38
			c-23.481-22.149-11.347-52.713-51.112-61.561c-70.003-15.589-93.846,46.906-52.544,94.094
			c18.549,21.196,41.948,28.897,56.382,54.155c16.632,29.096,17.57,65.505,14.08,98.464
			c-6.112,57.506-65.096,116.636-124.463,94.991c-21.575-7.857-42.362-30.041-68.243-15.845
			c-23.077,12.658-20.939,47.405-12.517,68.543c16.824,42.231,99.293,79.255,91.118,133.019c0.393,0.008,0.787,0.018,1.18,0.036
			l3.268-8.734c-0.172-3.881-0.197-7.651,0.453-11.41c33.96-1.909,66.428,0.54,97.292-11.488
			c38.226-14.907,69.443-31.292,110.312-38.602c61.344-10.969,124.604,1.72,183.115-18.599
			c84.522-29.366,164.899-64.531,252.094-88.99c59.317-16.637,273.89-91.066,231.185-177.59
			C1465.35,1474.097,1324.163,1543.588,1274.197,1562.031z"/>
	</g>
	<path style="opacity:0.4;fill:#F6C89A;" d="M932.679,1885.542c4.236-1.405,12.537-33.105,9.017-46.828
		c-6.329-24.779-34.141-37.75-57.168-47.339c-34.611-14.413-74.517-15.722-111.825-12.509
		c-24.948,2.136-188.521,22.099-150.667-35.425c28.282-42.979,78.339,0.129,114.892-8.83c33.829-8.301,63.048-49.13,59.498-83.269
		c-3.036-29.121-82.686-185.336-11.71-171.314c41.565,8.215,31.166,53.515,53.795,79.658c25.008,28.887,51.888,19.108,58.762-15.116
		c5.431-27.074-24.313-196.764,43.507-124.539c39.467,42.042-24.066,169.271,72.963,102.738
		c49.316-33.814,92.889-112.862,188.157-130.374c5.245-0.966,24.761,13.805,21.231,17.754
		c-31.126,34.923-136.365,106.452-130.404,164.203c7.242,70.192,118.946,14.073,159.382,11.861
		c23.43-1.286,65.883-16.907,85.934,0.744c35.301,31.068-16.168,62.925-44.52,71.183c-58.177,16.95-123.525-9.925-177.023,23.496
		c-41.293,25.798-42.362,72.144-71.995,107.745c-16.219,19.469-74.829,41.182-70.331,69.489L932.679,1885.542z"/>
	<path style="opacity:0.4;fill:#F6C89A;" d="M424.476,1624.431c10.016,8.442,20.344,17.358,27.031,27.362
		c16.894,25.258,18.266,53.104,17.283,81.077c5.23-2.819,10.505-8.124,15.78-16.574c12.245-19.633-7.191-61.995-20.893-75.73
		C450.822,1627.664,437.911,1625.344,424.476,1624.431z"/>
	<path style="fill:#FAF2B6;" d="M621.601,4.508c-1.19-1.51-2.426-3.006-3.636-4.509H240.636
		c163.331,193.072,464.665,682.027,629.317,1838.657c5.517,38.68,181.602,3.281,221.296,1.231
		c18.543-44.132-30.889-719.485-97.801-978.034C915.774,561.714,819.799,254.653,621.601,4.508z"/>
	<path style="opacity:0.5;fill:#F6C89A;" d="M621.601,4.508c-1.2-1.513-2.441-3.003-3.656-4.509h-6.238
		C779.258,341.029,974.834,1021.349,944.54,1230.839c0,4.446-102.243-315.637-200.049-444.558
		c28.927,184.466,107.892,407.186,45.337,586.758c29.058,141.721,56.059,296.511,80.124,465.618
		c5.517,38.68,181.602,3.281,221.296,1.231c18.543-44.132-30.889-719.485-97.801-978.034
		C915.774,561.714,819.799,254.653,621.601,4.508z"/>
	<path style="opacity:0.6;fill:#FFFFFF;" d="M713.365,857.408c0,0-171.627-520.136-367.833-787.589
		C602.377,150.551,713.365,857.408,713.365,857.408z"/>
	<path style="opacity:0.5;fill:#F6C89A;" d="M541.739,177.226c0,0,184.97,309.583,260.546,591.269
		C802.285,768.496,787.982,439.52,541.739,177.226z"/>
	<path style="opacity:0.5;fill:#F6C89A;" d="M992.722,859.102c-15.679-14.693-31.167-28.826-46.285-42.354
		c61.99,130.205,80.639,701.504,21.584,803.17c9.743-16.776-69.963-331.286-119.244-393.525
		c14.721,56.283-15.044,279.059-17.151,286.997c-2.733,10.338-5.729,20.601-8.921,30.806
		c16.708,93.002,32.533,191.037,47.249,294.461c5.517,38.68,181.602,3.281,221.296,1.231
		c18.543-44.132-30.889-719.485-97.801-978.034C993.211,860.933,992.969,860.013,992.722,859.102z"/>
	<path style="opacity:0.4;fill:#F6C89A;" d="M559.329,1276.032c7.555,3.083,13.727,5.01,18.831,5.706
		c-33.859-26.282-47.874-67.109-59.821-113.329c-9.698-37.568-19.971-92.376-50.885-121.127
		c-1.069,37.712-9.582,76.879-5.996,113.157C465.709,1203.48,517.804,1259.087,559.329,1276.032z"/>
	<path style="opacity:0.4;fill:#F6C89A;" d="M660.18,1598.487c4.519-19.456-6.495-43.083-24.953-64.209
		c3.359,38.169-11.337,72.726-58.51,72.737c-34.656,0.01-60.219-34.704-90.982-50.726
		C507.315,1627.914,639.141,1689.066,660.18,1598.487z"/>
	<path style="opacity:0.4;fill:#F6C89A;" d="M1436.523,1461.926c11.539,4.886,24.635,3.83,37.667-0.653
		c-65.242-36.094,21.035-90.945,62.902-150.359c-11.246,2.605-22.492,6.079-35.352,14.022
		c-18.861,11.652-31.136,22.724-45.135,39.273C1435.313,1389.378,1397.55,1445.4,1436.523,1461.926z"/>
	<path style="opacity:0.6;fill:#FFFFFF;" d="M378.473,1091.533c-0.353,43.865-14.438,76.547,12.593,115.586
		c11.624,16.801,56.306,84.537,73.503,44.611c11.281-26.186-39.437-68.437-44.611-94.989c-7.948-40.836,20.314-78.831-35.564-77.061
		L378.473,1091.533z"/>
	<path style="opacity:0.6;fill:#FFFFFF;" d="M1480.983,1230.781c23.702,10.974,16.844,44.507,0.066,62.36
		c-17.308,18.405-86.474,61.135-89.49,15.281c-0.151-2.295-20.495-6.773-21.433-17.651c-0.908-10.454,15.694-21.196,22.26-26.693
		C1412.105,1247.564,1454.441,1218.493,1480.983,1230.781z"/>
	<path style="opacity:0.6;fill:#FFFFFF;" d="M1641.686,1468.62c49.937-8.883,70.906,32.828,28.968,62.308
		c-15.462,10.86-36.24,18.364-54.001,19.353c-23.067,1.276-18.957-1.919-38.534-13.354c-18.468-10.774-90.589-18.226-42.892-38.247
		c14.705-6.173,36.437-4.417,52.624-9.94C1605.891,1482.572,1622.714,1471.996,1641.686,1468.62z"/>
	<g>
		<path style="fill:#FAF2B6;" d="M344.725,1527.349c74.991-34.132-3.994-173.855-63.704-104.533
			C241.604,1468.585,280.637,1556.526,344.725,1527.349z"/>
		<path style="fill:#FAF2B6;" d="M345.764,1415.255c24.812,29.913,31.721,83.077-10.737,102.405
			c-21.711,9.882-40.521,6.297-54.4-4.499c14.08,17.757,36.799,26.615,64.098,14.189
			C392.302,1505.694,377.899,1441.562,345.764,1415.255z"/>
		<path style="opacity:0.4;fill:#F6C89A;" d="M352.734,1421.825c11.866,29.106,8.689,64.577-24.308,79.598
			c-24.055,10.948-44.581,5.401-58.752-8.223c10.54,29.643,38.771,50.663,75.051,34.149
			C388.701,1507.336,379.714,1451.02,352.734,1421.825z"/>
		<path style="opacity:0.6;fill:#FFFFFF;" d="M312.323,1454.631c9.587-6.564,22.568-24.537,13.258-36.051
			c-6.869-8.51-19.295-3.611-26.638,1.606c-8.261,5.87-20.566,21.784-16.32,32.944
			C286.443,1463.181,305.374,1459.399,312.323,1454.631z"/>
	</g>
	<g>
		<path style="fill:#FAF2B6;" d="M491.469,961.323c74.991-34.132-3.989-173.855-63.709-104.533
			C388.348,902.559,427.391,990.5,491.469,961.323z"/>
		<path style="fill:#FAF2B6;" d="M492.508,849.231c24.817,29.911,31.726,83.077-10.737,102.405
			c-21.711,9.879-40.512,6.293-54.4-4.499c14.08,17.754,36.804,26.612,64.098,14.186
			C539.045,939.671,524.642,875.54,492.508,849.231z"/>
		<path style="opacity:0.4;fill:#F6C89A;" d="M499.467,855.802c11.872,29.103,8.705,64.574-24.297,79.595
			c-24.056,10.949-44.571,5.401-58.742-8.223c10.54,29.643,38.766,50.665,75.041,34.149
			C535.45,941.31,526.458,884.994,499.467,855.802z"/>
		<path style="opacity:0.6;fill:#FFFFFF;" d="M459.072,888.607c9.582-6.566,22.563-24.539,13.258-36.053
			c-6.873-8.51-19.295-3.611-26.642,1.606c-8.26,5.87-20.556,21.786-16.325,32.944C433.181,897.16,452.123,893.373,459.072,888.607z
			"/>
	</g>
	<g>
		<path style="fill:#FAF2B6;" d="M1234.78,1165.856c118.639-7.91,140.248-281.505,10.62-207.571
			C1159.829,1007.092,1133.394,1172.621,1234.78,1165.856z"/>
		<path style="fill:#FAF2B6;" d="M1329.559,986.607c4.872,63.515-31.176,153.159-98.35,157.637
			c-34.344,2.294-53.971-15.21-61.652-41.223c2.103,37.309,22.033,65.719,65.222,62.835
			C1310.048,1160.84,1346.232,1048.917,1329.559,986.607z"/>
		<path style="opacity:0.4;fill:#F6C89A;" d="M1332.434,1001.519c-10.001,54.117-43.411,109.054-95.622,112.537
			c-38.045,2.544-58.092-19.189-63.77-49.912c-12.063,54.155,4.347,105.542,61.738,101.712
			C1304.354,1161.222,1340.533,1065.231,1332.434,1001.519z"/>
		<path style="opacity:0.6;fill:#FFFFFF;" d="M1256.505,1028.911c16.996-4.549,47.592-25.276,46.013-49.576
			c-1.175-17.948-20.193-17.853-33.365-14.078c-14.837,4.256-42.897,22.124-47.123,42.67
			C1218.239,1026.455,1244.16,1032.211,1256.505,1028.911z"/>
	</g>
	<g>
		<path style="fill:#FAF2B6;" d="M298.303,1780.855c37.617-39.215-44.848-105.542-64.526-48.512
			C220.786,1769.993,266.154,1814.352,298.303,1780.855z"/>
		<path style="fill:#FAF2B6;" d="M271.59,1711.921c22.502,12.267,39.704,43.164,18.407,65.356
			c-10.893,11.349-23.289,13.734-34.434,10.515c12.96,7.441,29.048,7.33,42.74-6.937
			C322.172,1755.978,297.698,1720.197,271.59,1711.921z"/>
		<path style="opacity:0.4;fill:#F6C89A;" d="M277.471,1714.249c14.362,14.932,21.07,37.44,4.519,54.692
			c-12.073,12.575-25.993,14.179-37.995,9.289c13.682,15.586,36.109,21.579,54.309,2.625
			C320.357,1757.861,301.118,1725.543,277.471,1714.249z"/>
		<path style="opacity:0.6;fill:#FFFFFF;" d="M260.717,1744.202c4.267-6.362,7.837-20.533-0.675-25.324
			c-6.284-3.535-12.699,2.499-15.926,7.481c-3.631,5.61-7.282,18.367-1.967,24.164
			C246.939,1755.751,257.611,1748.814,260.717,1744.202z"/>
	</g>
	<g>
		<path style="fill:#FAF2B6;" d="M1656.422,1312.484c55.625,12.486,70.402-97.576,8.513-84.265
			C1624.081,1236.996,1608.896,1301.815,1656.422,1312.484z"/>
		<path style="fill:#FAF2B6;" d="M1703.823,1251.079c1.195,26.867-17.202,59.078-48.701,52.012
			c-16.098-3.613-24.973-13.453-28.13-25.2c0.363,15.674,9.188,30.055,29.431,34.593
			C1691.724,1320.404,1710.555,1279.013,1703.823,1251.079z"/>
		<path style="opacity:0.4;fill:#F6C89A;" d="M1704.906,1257.618c-5.603,21.004-22.159,39.248-46.638,33.758
			c-17.843-4.012-26.85-15.639-28.978-29.079c-6.566,20.762,0.232,44.145,27.132,50.186
			C1689.051,1319.804,1707.61,1284.986,1704.906,1257.618z"/>
		<path style="opacity:0.6;fill:#FFFFFF;" d="M1668.919,1258.843c8.029,0.381,22.699-4.118,22.381-14.353
			c-0.247-7.565-9.143-10.056-15.371-10.245c-7.02-0.209-20.44,3.437-22.764,11.354
			C1651.066,1252.746,1663.099,1258.563,1668.919,1258.843z"/>
	</g>
	<g>
		<path style="fill:#FAF2B6;" d="M1231.603,875.661c48.661-29.704-17.237-119.077-52.478-66.485
			C1155.876,843.898,1190.017,901.041,1231.603,875.661z"/>
		<path style="fill:#FAF2B6;" d="M1222.969,798.58c19.537,18.47,28.715,54.417,1.17,71.234c-14.086,8.598-27.308,7.705-37.743,1.452
			c11.15,11.019,27.495,15.203,45.206,4.395C1262.476,856.81,1247.226,813.967,1222.969,798.58z"/>
		<path style="opacity:0.4;fill:#F6C89A;" d="M1228.294,802.514c10.581,19,11.367,43.623-10.046,56.7
			c-15.613,9.527-30.168,7.423-41.04-0.757c9.713,19.487,30.859,31.572,54.395,17.205
			C1260.137,858.242,1249.269,820.308,1228.294,802.514z"/>
		<path style="opacity:0.6;fill:#FFFFFF;" d="M1203.291,828.418c6.032-5.308,13.445-18.737,6.092-25.866
			c-5.426-5.273-13.556-0.87-18.165,3.315c-5.184,4.731-12.295,16.688-8.462,23.991
			C1186.215,836.446,1198.903,832.263,1203.291,828.418z"/>
	</g>
	<path style="opacity:0.5;fill:#F6C89A;" d="M487.667,0c8.855,6.77,16.057,12.494,21.201,16.725
		c-1.82-5.618-3.843-11.186-5.971-16.725H487.667z"/>
	<path style="opacity:0.6;fill:#FFFFFF;" d="M562.728,0h-15.987c-3.939,13.271,0.873,44.316-4.534,48.416
		c-14.257,10.8-69.227-19.242-74.814-4.889c-3.717,9.534,20.858,19.971,26.103,22.838c15.75,8.621,32.064,20.358,46.497,31.108
		c56.81,42.321,156.759,188.603,156.759,188.603S619.432,51.119,562.728,0z"/>
	<g>
		<path style="fill:#FAF2B6;" d="M623.749,1563.919c48.656-29.703-17.247-119.077-52.478-66.485
			C548.012,1532.156,582.164,1589.299,623.749,1563.919z"/>
		<path style="fill:#FAF2B6;" d="M615.105,1486.839c19.547,18.47,28.725,54.417,1.17,71.233
			c-14.081,8.599-27.303,7.706-37.733,1.453c11.145,11.019,27.495,15.202,45.206,4.395
			C654.623,1545.068,639.372,1502.225,615.105,1486.839z"/>
		<path style="opacity:0.4;fill:#F6C89A;" d="M620.441,1490.772c10.58,19,11.357,43.623-10.046,56.7
			c-15.613,9.526-30.168,7.423-41.045-0.754c9.718,19.484,30.863,31.57,54.399,17.202
			C652.283,1546.501,641.41,1508.567,620.441,1490.772z"/>
		<path style="opacity:0.6;fill:#FFFFFF;" d="M595.437,1516.676c6.032-5.305,13.445-18.737,6.092-25.866
			c-5.436-5.273-13.556-0.87-18.165,3.316c-5.184,4.73-12.305,16.687-8.467,23.99
			C578.362,1524.704,591.05,1520.521,595.437,1516.676z"/>
	</g>
	<g>
		<path style="fill:#FAF2B6;" d="M1486.087,1065.372c55.666-12.3,22.34-118.227-28.06-79.918
			C1424.763,1010.748,1438.52,1075.88,1486.087,1065.372z"/>
		<path style="fill:#FAF2B6;" d="M1502.931,989.666c12.497,23.808,9.501,60.789-22.013,67.756
			c-16.103,3.558-28.317-1.576-36.164-10.881c6.969,14.045,21.07,23.309,41.333,18.831
			C1521.409,1057.561,1520.894,1012.095,1502.931,989.666z"/>
		<path style="opacity:0.4;fill:#F6C89A;" d="M1506.703,995.12c3.843,21.398-3.42,44.944-27.908,50.363
			c-17.863,3.941-30.945-2.768-38.58-14.035c2.864,21.582,18.942,39.878,45.872,33.925
			C1518.731,1058.161,1520.753,1018.749,1506.703,995.12z"/>
		<path style="opacity:0.6;fill:#FFFFFF;" d="M1474.639,1011.495c7.433-3.056,18.801-13.357,14.166-22.485
			c-3.434-6.753-12.542-5.222-18.261-2.756c-6.445,2.791-17.056,11.791-15.795,19.943
			C1455.889,1013.552,1469.253,1013.711,1474.639,1011.495z"/>
	</g>
	<g>
		<g>
			<g>
				<path style="fill:#EE2B50;" d="M1294.339,1251.288c34.333,167-78.077,468.838-177.385,555.198
					c-34.787,30.254-68.919,20.157-127.429,32.185c-58.52,12.035-85.909,34.767-129.829,20.684
					c-125.301-40.181-347.67-273.169-382.004-440.145c-33.007-160.534,38.479-282.416,163.764-356.047
					c50.718-29.813,119.234-7.996,184.219-21.358c62.02-12.754,113.55-60.113,169.68-54.006
					C1143.318,1003.905,1260.717,1087.799,1294.339,1251.288z"/>
			</g>
		</g>
		<path style="opacity:0.5;fill:#A21532;" d="M775.072,1060.128c-2.35,3.28-10.419,18.541-0.535,24.989
			c12.103,7.892,37.187,13.788,51.208,12.923c15.926-0.976,36.764-0.482,51.031-8.286c20.167-11.029,33.986-31.139,38.141-52.115
			c1.563-7.9-5.669-8.952-9.037-15.593c-2.255-4.461-9.441-6.708-13.556-4.778c-21.262,9.948-43.205,19.716-66.65,24.539
			C801.931,1046.685,788.82,1040.886,775.072,1060.128z"/>
		<g>
			<g>
				<path style="fill:#88C540;" d="M795.456,929.928c0,0-131.644-59.504-207.477,42.481
					c-75.803,101.989-123.914,150.844-184.441,153.209c0,0,224.851,46.517,273.315-51.117
					C710.773,1006.171,854.582,1059.467,795.456,929.928z"/>
				<path style="opacity:0.3;fill:#D1D3D4;" d="M751.329,1002.888c-40.355,1.571-76.357,23.702-108.255,47.682
					c-31.116,24.499-66.68,40.745-104.054,50.214c-22.648,5.752-27.873-10.815-9.471-25.099
					c12.492-9.698,23.869-20.864,33.36-34.101c16.259-22.135,22.402-47.559,29.3-74.597
					c76.383-94.384,203.246-37.059,203.246-37.059c13.96,30.581,16.597,50.963,12.053,65.164
					C792.148,1004.363,771.512,1003.015,751.329,1002.888z"/>
				<path style="opacity:0.42;fill:#D1D3D4;" d="M677.937,987.938c-34.944-2.171-60.301,92.009-89.389,69.594
					c-5.648-4.352,10.626-98.594,89.908-142.054c60.376-11.138,116.999,14.449,116.999,14.449
					c5.306,11.619,8.947,21.746,11.216,30.639C785.784,989.257,715.937,988.44,677.937,987.938z"/>
				<path style="opacity:0.18;fill:#FFFFFF;" d="M462.693,1133.974c15.694-7.981,85.819-8.48,102.052-19.719
					c26.123-16.685,55.06-25.891,76.13-42.379c19.033-14.05,39.74-21.171,60.225-22.55c-10.117,6.011-18.67,13.954-24.248,25.175
					C644.391,1139.879,532.853,1140.623,462.693,1133.974z"/>
				<g>
					<path style="fill:#754C29;" d="M494.071,1104.015c0,0,2.29-0.214,6.652-0.63c2.133-0.522,4.846-0.818,7.877-1.841
						c3.091-0.849,6.521-2.199,10.313-3.873c3.742-1.8,7.807-3.989,12.063-6.72c4.186-2.822,8.795-5.827,13.243-9.71
						c4.509-3.813,9.33-7.877,14.444-12.189c4.771-4.688,9.824-9.648,15.114-14.847c4.988-5.517,10.202-11.289,15.628-17.31
						c5.21-6.236,10.611-12.719,16.219-19.431c11.11-13.536,22.623-28.32,35.675-43.27c6.364-7.597,13.536-14.875,20.727-22.48
						c7.323-7.446,15.805-14.746,26.093-20.18c10.313-5.731,22.452-7.66,33.627-8.775c11.246-1.001,22.331-1.974,33.728-3.356
						c17.106-2.161,30.017-2.196,38.04-0.822c8.104,1.379,11.574,4.813,10.938,8.432c-0.615,3.624-5.234,6.952-13.339,8.455
						c-8.175,1.738-19.653,1.057-34.964,0.807c-11.306-0.255-22.674-0.358-33.526-0.076c-10.787,0.333-20.838,1.248-29.683,5.414
						c-8.967,3.956-17.197,9.96-24.752,16.725c-7.413,6.929-14.877,13.606-21.605,20.73c-13.707,13.977-25.962,28.158-37.652,41.215
						c-5.89,6.508-11.579,12.786-17.051,18.833c-5.668,5.863-11.11,11.491-16.304,16.862c-5.487,5.078-10.702,9.909-15.649,14.491
						c-5.26,4.206-10.202,8.172-14.842,11.887c-4.579,3.785-9.299,6.715-13.576,9.463c-4.352,2.64-8.498,4.75-12.315,6.478
						c-3.873,1.599-7.353,2.867-10.48,3.656c-3.076,0.936-5.825,1.162-7.962,1.626
						C496.371,1103.871,494.071,1104.015,494.071,1104.015z"/>
				</g>
				<g>
					<path style="fill:#956238;" d="M798.765,919.993c-1.422,2.957-5.315,5.794-11.761,7.642c-7.968,2.516-19.456,2.93-34.727,4.161
						c-11.276,0.827-22.593,1.813-33.37,3.142c-9.214,1.168-17.777,2.852-25.352,6.447c8.694-3.934,18.519-4.866,29.068-5.187
						c10.853-0.282,22.22-0.179,33.526,0.076c15.311,0.249,26.789,0.931,34.964-0.807c8.104-1.503,12.724-4.831,13.339-8.455
						C804.927,924.305,803.102,921.71,798.765,919.993z"/>
				</g>
				<path style="opacity:0.3;fill:#FFD600;" d="M753.891,926.635c3.676,0.015,7.363,0.58,11.105,0.557
					c2.985-0.02,17.943-0.423,19.396-3.369c2.309-4.645-5.719-3.074-7.272-3.061c-3.52,0.03-6.879-1.102-10.439-0.724
					c-7.575,0.779-14.706,2.257-22.24,3.379c-2.693,0.404-10.631,1.501-4.589,4.052C743.18,928.863,750.23,926.62,753.891,926.635z"
					/>
			</g>
			<g>
				<path style="fill:#754C29;" d="M834.086,1081.291c1.039,5.084,1.735,9.809,2.703,14.027l24.222-4.98
					c-2.708-16.1-10.071-39.78-12.573-49.102c-7.348-27.25-16.289-50.628-21.337-79.633c-5.724-32.909-6.41-66.153-14.378-98.822
					c-6.606-27.124-28.826-50.849-33.647-14.062c-4.463,34.016,18.226,73.629,25.73,106.838
					C814.257,997.394,825.422,1039.206,834.086,1081.291z"/>
				<path style="fill:#956238;" d="M819.764,980.366c0.887,5.688,0.857,11.019,1.341,16.592
					c0.968,10.787,6.546,21.408,11.024,30.929c5.063,10.747,4.569,23.367,8.987,34.232c2.068,5.078,3.319,10.616,4.952,15.823
					c0.847,2.761,0.686,5.976,1.836,8.634c0.777,1.778,2.481,2.794,2.471,4.851c0,0.442-0.111,0.757-0.161,1.133l10.797-2.222
					c-2.708-16.1-10.071-39.78-12.573-49.102c-7.348-27.25-16.289-50.628-21.337-79.633c-5.724-32.909-6.41-66.153-14.378-98.822
					c-3.822-15.689-12.85-30.147-20.727-32.525c0.02,0.527-0.02,1.014,0.04,1.563c0.716,7.356,1.977,17.028,5.074,23.766
					c3.873,8.432,5.708,12.008,3.6,21.602c-1.705,7.756,0.827,16.811,2.895,24.539c1.029,3.896,3.389,6.412,4.216,10.48
					c1.19,5.825,0.338,11.078-0.141,16.894c-1.059,12.772,7.635,22.843,9.557,34.843C818.11,969.37,818.907,974.968,819.764,980.366
					z"/>
				<path style="fill:#956238;" d="M819.986,950.657c5.058,29.005,10.722,53.059,18.065,80.304
					c2.829,10.508,15.19,43.479,17.842,60.434l5.119-1.057c-2.708-16.1-10.071-39.78-12.573-49.102
					c-7.348-27.25-16.289-50.628-21.337-79.633c-5.724-32.909-6.41-66.153-14.378-98.822c-3.641-14.95-12.022-28.821-19.633-32.139
					c3.889,5.979,7.277,13.753,9.264,21.87C810.313,885.175,814.262,917.744,819.986,950.657z"/>
				<path style="opacity:0.3;fill:#FFD600;" d="M789.137,891.671c1.69,4.844,3.944,9.141,4.978,14.191
					c0.666,3.278,1.069,10.714,5.134,10.911c9.874,0.477-2.249-18.077-3.036-20.777c-2.854-9.897-2.305-19.391-1.543-29.142
					c0.282-3.568,0.605-10.071-2.249-12.825c-3.595-3.444-6.379-0.524-7.07,3.253C783.363,868.155,785.552,881.391,789.137,891.671z
					"/>
			</g>
		</g>
		<g>
			<g>
				<path style="fill:#930F2C;" d="M772.097,1083.719c12.467,2.729,24.176,4.832,35.705,6.026
					c11.518,1.181,22.744,1.175,33.657-0.247c2.733-0.336,5.502-0.509,8.14-1.314c2.673-0.618,5.406-1.084,8.079-1.79
					c2.622-0.865,5.234-1.777,7.938-2.542c1.372-0.34,2.688-0.819,3.943-1.46l3.904-1.672c5.441-1.881,10.308-4.983,15.729-7.6
					c2.88-1.117,5.114-3.099,7.832-4.587c2.643-1.581,5.346-3.17,8.291-4.647c-1.372,2.857-2.985,5.603-4.66,8.354
					c-1.735,2.688-3.328,5.595-5.547,7.92c-4.322,4.768-8.755,9.728-14.322,13.331c-5.184,4.206-11.322,6.914-17.439,9.731
					c-6.334,2.12-12.819,4.249-19.527,4.844c-13.329,1.725-26.89,0.192-39.235-4.007
					C792.31,1099.751,780.811,1093.243,772.097,1083.719z"/>
			</g>
		</g>
		<path style="opacity:0.4;fill:#A21532;" d="M995.354,987.799c-15.694-1.707,13.178,68.871,32.336,101.419
			c36.603,62.149,19.426,111.447,36.462,180.51c38.68,156.761-72.015,348.949-236.319,373.637
			c-53.83,8.087-119.759,27.394-172.025,66.38c70.185,73.445,147.031,131.377,203.887,149.611
			c43.92,14.083,71.309-8.649,129.829-20.684c58.51-12.028,92.642-1.931,127.429-32.185
			c99.309-86.36,211.719-388.199,177.385-555.198C1260.717,1087.799,1143.318,1003.905,995.354,987.799z"/>
		<path style="opacity:0.4;fill:#A21532;" d="M1053.289,998.062c15.361,28.516,35.533,54.697,50.759,83.468
			c41.771,78.932,80.926,175.979,80.109,265.582c-0.666,73.413,3.217,143.66-5.265,216.333
			c-6.112,52.499-29.179,116.48-66.518,155.3c-34.197,35.559-102.304,21.022-148.085,38.443
			c-26.698,10.159-43.25,28.208-73.881,31.507c-25.432,2.736-48.182-3.765-71.809-10.144c-26.481-7.144-60.996-8.584-86.237,2.849
			c45.978,38.103,90.785,66.234,127.333,77.956c43.92,14.083,71.309-8.649,129.829-20.684c58.51-12.028,92.642-1.931,127.429-32.185
			c99.309-86.36,211.719-388.199,177.385-555.198C1265.24,1109.804,1173.375,1027.975,1053.289,998.062z"/>
		<path style="opacity:0.3;fill:#F8B2B2;" d="M537.119,1441.844c10.57,69.247,52.257,105.728,119.804,88.721
			c28.029-7.066,52.176-20.914,80.821-27.359c32.013-7.207,87.043,6.578,115.96-12.958c60.901-41.129,29.003-119.299,15.392-182.421
			c-11.75-54.48-60.396-129.126-121.074-143.09c-52.337-12.038-132.109,19.247-160.965,49.955
			C547.246,1257.058,522.504,1346.182,537.119,1441.844z"/>
	</g>
	<g>
		<path style="fill:#FAF2B6;" d="M315.163,1820.396c-11.781-67.925,11.246-95.71,78.531-91.837
			c68.072,3.906,122.184,54.892,188.536,65.146c91.583,14.153,100.11-58.611,158.051-110.368
			c73.22-65.391,182.393-61.571,271.757-42.955c93.468,19.476,213.181,92.334,308.536,62.098
			c54.738-17.348,92.581-74.245,146.34-94.475c46.321-17.426,111.074-23.42,160.355-26.519
			c86.646-5.452,123.067,38.524,86.842,120.396c-47.087,106.442-230.544,204.369-340.181,220.178
			c-52.761,7.607-82.626,18.193-133.884,37.443c-55.625,20.881-111.785,39.202-171.233,50.89
			c-152.609,30.006-311.975,31.57-468.18,31.534c-62.837-0.007-126.037-17.235-171.475-62.975
			C394.097,1943.664,323.706,1869.662,315.163,1820.396z"/>
		<path style="opacity:0.4;fill:#F6C89A;" d="M1687.558,1588.225c9.259,20.24,7.06,48.242-8.392,83.166
			c-45.246,102.284-132.577,83.06-224.861,92.914c-44.52,4.75-29.674,41.394-30.944,72.676
			c-2.078,51.472-40.859,48.32-84.371,54.589c-52.771,7.605-82.621,18.2-133.884,37.44c-55.625,20.891-111.795,39.202-171.243,50.9
			c-48.313,9.499-92.798,28.794-140.894,12.928c-38.666-12.764-72.414-38.448-111.432-49.813
			c-27.873-8.117-54.788-4.133-79.358,16.887c-18.356,15.717-26.229,44.763-50.698,52.662c-21.706,7.015-62.268-1.129-85.788-1.129
			c-51.006-0.008-102.274-11.375-144.066-40.12c2.648,2.698,5.169,5.26,7.529,7.63c45.438,45.741,108.638,62.968,171.475,62.975
			c156.204,0.036,315.571-1.528,468.18-31.534c59.448-11.687,115.608-30.009,171.233-50.89
			c51.258-19.25,81.123-29.835,133.884-37.443c109.637-15.81,293.094-113.737,340.181-220.178
			C1740.229,1642.859,1728.568,1603.533,1687.558,1588.225z"/>
		<path style="opacity:0.4;fill:#F6C89A;" d="M420.452,1802.213c26.89-13.112,82.353,16.118,106.086,26.007
			c33.91,14.116,63.634,19.693,100.7,21.385c44.208,2.022,71.864-7.668,103.807-37.7c21.322-20.041,34.727-42.044,62.171-51.855
			c24.843-8.891,54.062-11.183,71.199,9.552c20.364,24.643,13.233,50.133,48.01,68.152
			c108.235,56.089,232.133-31.391,340.237-35.549c42.165-1.624,46.719,22.853,8.311,43.794
			c-40.839,22.265-91.26,29.913-135.75,42.138c-88.436,24.305-183.346,27.101-273.396,17.795
			c-30.314-3.137-66.841-12.376-96.989-8.866c-29.956,3.472-49.432,25.49-74.174,40.808
			c-53.24,32.969-126.042,28.332-173.018-11.463C491.308,1912.573,376.028,1823.878,420.452,1802.213z"/>
		<path style="opacity:0.6;fill:#FFFFFF;" d="M716.744,1740.896c0.186-2.12,0.555-4.523,1.149-7.234
			c5.477-25.422,56.049-49.284,75.949-58.651c55.727-26.206,115.144-13.702,173.22-11.836
			c35.029,1.127,105.401,20.979,107.766,69.695c2.577,53.333-72.494,44.591-102.743,37.601c-30.531-7.07-26.114-33.882-48.762-52.75
			c-17.354-14.466-46.593-23.94-66.917-24.374c-33.395-0.701-53.573,10.387-79.863,29.842
			C765.238,1731.632,713.486,1777.295,716.744,1740.896z"/>
		<path style="opacity:0.4;fill:#F6C89A;" d="M509.321,1868.489c29.361-1.614,52.181,1.72,79.57,8.432
			c24.888,6.104,51.505,13.919,77.069,5.988c22.583-6.997,54.758-30.806,70.533-48.283c13.193-14.63,24.792-51.265,54.001-37.109
			c13.818,6.682,7.368,19.847,15.351,29.182c7.832,9.171,26.618,20.379,37.767,24.365c22.417,8.014,48.393,6.642,71.375,13.849
			c37.672,11.816,24.994,24.3-8.972,23.876c-23.637-0.295-45.292-4.559-68.167-8.881c-44.561-8.434-80.195-20.76-120.933,5.981
			c-37.773,24.815-88.325,50.136-135.271,44.5C554.83,1927.175,499.286,1903.932,509.321,1868.489z"/>
		<path style="opacity:0.6;fill:#FFFFFF;" d="M1508.761,1626.169c-33.779,11.567-64.99,28.247-90.382,53.669
			c-15.25,15.276-6.394,20.76,9.582,31.199c16.723,10.924,34.929,18.894,54.516,22.565c52.025,9.769,129.93-12.295,149.553-67.822
			C1658.101,1591.992,1544.113,1614.058,1508.761,1626.169z"/>
		<path style="opacity:0.6;fill:#FFFFFF;" d="M340.237,1783.571c-7.342-31.971,33.143-44.135,57.496-32.299
			c10.031,4.877,21.711,18.564,17.898,30.859c-2.229,7.181-12.073,9.36-16.113,14.779c-4.685,6.284-4.977,11.894-6.157,19.267
			c-2.098,13.134-2.542,27.974-0.151,41.147c2.607,14.388,12.799,30.364,9.652,44.841c-16.41-0.837-31.328-35.723-37.883-48.601
			C353.707,1831.44,345.784,1807.743,340.237,1783.571z"/>
		<path style="opacity:0.4;fill:#F6C89A;" d="M757.744,1959.774c-20.243,0.84-46.664,20.195-39.649,44.785
			c6.495,22.731,31.963,18.46,51.904,17.452c23.279-1.162,56.139-10.17,78.778-11.702
			C848.777,2010.308,784.83,1958.652,757.744,1959.774z"/>
		<path style="opacity:0.4;fill:#F6C89A;" d="M1169.3,1692.228c3.833,3.561,7.252,6.818,9.865,8.414
			c22.119,13.521,47.143,21.446,70.19,33.201c27.797,14.196,60.386,27.006,89.116,7.103c22.896-15.863,31.585-39.742,22.175-57.852
			c-12.598,8.586-25.756,15.87-40.073,20.412C1273.995,1718.276,1221.597,1708.424,1169.3,1692.228z"/>
		<path style="opacity:0.4;fill:#F6C89A;" d="M1360.646,1683.095c-12.598,8.586-25.756,15.87-40.073,20.412
			c-42.362,13.432-89.525,6.478-137.061-7.068c16.869,5.53,34.101,10.55,50.522,16.741c33.688,12.714,73.155,24.174,107.962,6.354
			c9.426-4.819,16.804-10.469,22.074-16.461C1364.902,1696.111,1363.852,1689.265,1360.646,1683.095z"/>
	</g>
	<g>
		<g>
			<g>
				<g>
					<path style="fill:#EE2B50;" d="M1145.689,316.141c44.026,93.867,20.434,288.321-26.017,353.488
						c-16.274,22.835-37.889,21.711-70.78,37.14c-32.891,15.429-45.861,32.762-73.831,30.677
						C895.259,731.48,730.673,625.3,686.657,531.443c-42.327-90.236-17.369-172.461,46.255-233.803
						c25.75-24.83,74.759-14.448,111.281-31.585c34.868-16.352,53.225-58.891,87.276-63.253
						C1021.245,191.307,1102.58,224.236,1145.689,316.141z"/>
				</g>
			</g>
		</g>
		<g style="opacity:0.4;">
			<g>
				<g>
					<path style="fill:#A21532;" d="M1138.255,322.026c42.422,90.453,19.693,277.824-25.074,340.62
						c-15.674,21.998-36.512,20.921-68.192,35.785c-31.701,14.867-44.198,31.572-71.148,29.558
						c-76.897-5.742-235.492-108.058-277.904-198.499c-40.789-86.95-16.743-166.185,44.57-225.285
						c24.817-23.932,72.338-13.523,107.539-30.029c33.587-15.757,50.976-57.156,83.796-61.36
						C1018.35,201.741,1096.72,233.475,1138.255,322.026z"/>
				</g>
			</g>
		</g>
		<g>
			<path style="fill:#754C29;" d="M856.579,301.985c1.341,2.857,2.42,5.555,3.591,7.91l13.616-6.385
				c-3.898-9.133-11.609-22.096-14.413-27.243c-8.22-15.076-16.814-27.626-23.924-44.064c-8.059-18.642-13.183-38.206-22.543-56.389
				c-7.761-15.104-24.257-25.975-21.887-3.543c2.189,20.755,21.221,40.96,30.389,59.526
				C832.937,255.195,845.483,278.33,856.579,301.985z"/>
			<path style="fill:#956238;" d="M833.774,244.34c1.331,3.238,2.068,6.397,3.157,9.615c2.088,6.251,6.904,11.735,10.913,16.736
				c4.519,5.628,6.021,13.16,10.167,18.962c1.947,2.711,3.47,5.802,5.174,8.657c0.898,1.508,1.26,3.437,2.315,4.839
				c0.711,0.943,1.861,1.299,2.154,2.522c0.06,0.255,0.04,0.459,0.055,0.691l6.077-2.85c-3.898-9.133-11.609-22.096-14.413-27.243
				c-8.22-15.076-16.814-27.626-23.924-44.064c-8.059-18.642-13.183-38.206-22.543-56.389c-4.488-8.737-11.886-16.004-16.884-16.287
				c0.096,0.303,0.141,0.595,0.252,0.915c1.473,4.252,3.591,9.788,6.375,13.329c3.49,4.438,5.084,6.291,5.204,12.267
				c0.091,4.826,2.865,9.819,5.195,14.1c1.16,2.153,2.915,3.306,3.979,5.595c1.533,3.276,1.77,6.501,2.32,10.011
				c1.185,7.701,7.757,12.421,10.606,19.247C831.227,238.072,832.493,241.277,833.774,244.34z"/>
			<path style="fill:#956238;" d="M829.688,226.745c7.111,16.435,13.879,29.853,22.089,44.919
				c3.167,5.81,15.15,23.552,19.128,33.194l2.88-1.347c-3.898-9.133-11.609-22.096-14.413-27.243
				c-8.22-15.076-16.814-27.626-23.924-44.064c-8.059-18.642-13.183-38.206-22.543-56.389c-4.276-8.329-11.206-15.336-16.168-16.214
				c3.147,2.978,6.253,7.093,8.573,11.612C814.66,189.396,821.62,208.093,829.688,226.745z"/>
			<path style="opacity:0.3;fill:#FFD600;" d="M803.061,196.246c1.685,2.625,3.631,4.841,4.962,7.686
				c0.857,1.843,2.148,6.18,4.58,5.724c5.91-1.127-3.894-10.371-4.741-11.859c-3.096-5.449-4.115-11.14-5.063-17.01
				c-0.333-2.146-1.069-6.047-3.142-7.262c-2.617-1.528-3.848,0.595-3.717,2.928C796.303,183.16,799.48,190.679,803.061,196.246z"/>
		</g>
		<g>
			<g>
				<g>
					<g>
						<path style="fill:#FFF9BA;" d="M1134.13,325.304c41.54,88.554,19.28,271.989-24.54,333.477
							c-15.361,21.532-35.75,20.478-66.771,35.029c-31.035,14.557-43.27,30.907-69.655,28.937
							c-75.283-5.62-230.539-105.789-272.074-194.335c-39.926-85.125-16.38-162.695,43.643-220.56
							c24.298-23.425,71.072-12.89,105.531-29.05c32.881-15.429,49.655-56.301,81.779-60.414
							C1016.737,207.546,1093.463,238.609,1134.13,325.304z"/>
					</g>
				</g>
			</g>
			<g>
				<g>
					<g>
						<path style="fill:#FFF9B0;" d="M1118.895,433.045c-66.09,8.818-62.277,95.743-103.645,133.624
							c-50.466,42.15-116.844,3.054-172.05-4.314c-33.038-4.413-45.943,22.789-44.778,53.517
							c57.234,47.196,129.038,84.242,172.242,87.47c24.298,1.818,35.553-13.243,64.133-26.642
							c28.559-13.4,47.334-12.421,61.47-32.256c27.414-38.467,45.64-128.776,42.523-208.295
							C1132.577,433.607,1125.98,432.404,1118.895,433.045z"/>
					</g>
				</g>
			</g>
			<path style="fill:#FFF9B0;" d="M920.273,222.226c0.09-0.353,0.136-0.691,0.212-1.036c-26.305,9.32-41.414,44.1-70.22,57.612
				c-27.344,12.825-64.511,6.084-88.511,17.562c1.785,0.772,3.878,1.468,6.218,2.32c19.244,7.027,36.118,17.23,53.285,28.213
				c12.951,8.279,22.609,18.402,36.522,24.611c12.855,5.731,30.672,24.567,51.459,14.776c10.026-4.713-1.815-37.876-2.814-46.853
				c-1.231-11.044-1.16-22.744-0.928-33.937c0.232-10.989,3.646-21.706,4.892-32.558c0.545-4.706,0.892-8.977,1.926-13.634
				C913.767,232.791,918.729,228.258,920.273,222.226z"/>
		</g>
		<path style="fill:#FFF9B0;" d="M878.042,432.833c-18.498,12.729-12.915,48.079,1.785,63.651
			c15.029,15.911,44.399,25.954,59.927,9.645c13.45-14.136,29.956-23.113,48.691-27.601c7.191-1.715,11.337-3.934,14.877-10.943
			c4.014-7.93,8.109-17.26,6.384-26.905c-3.429-19.201-16.148-32.934-30.939-43.448c-11.276-8.001-21.377-8.246-30.965,1.079
			c-3.687,3.586-5.345,8.473-7.923,12.893c-6.566,11.224-14.605,16.62-27.283,16.98
			C900.816,428.511,888.239,425.815,878.042,432.833z"/>
		<path style="fill:#FFD67B;" d="M892.062,441.603c-14.847,9.93-11.115,36.422,0.192,47.857
			c11.564,11.685,34.575,18.687,47.132,6.123c10.883-10.891,24.096-17.956,38.973-21.69c5.699-1.432,9.007-3.177,11.952-8.512
			c3.318-6.047,6.717-13.145,5.547-20.367c-2.35-14.39-12.124-24.479-23.612-32.102c-8.744-5.812-16.718-5.795-24.459,1.399
			c-2.985,2.768-4.378,6.47-6.506,9.852c-5.386,8.568-11.831,12.782-21.857,13.291C910.126,437.926,900.246,436.134,892.062,441.603
			z"/>
		<g>
			<path style="fill:#603913;" d="M928.523,461.319c-3.722,6.682-8.775,10.956-13.122,8.543c-4.337-2.416-3.379-8.966,0.343-15.649
				c3.712-6.677,7.958-11.407,13.112-8.543C934,448.53,932.225,454.639,928.523,461.319z"/>
			<path style="opacity:0.5;fill:#754C29;" d="M931.68,448.888c-0.63,1.883-1.593,3.916-2.743,5.989
				c-3.712,6.679-8.785,10.949-13.112,8.545c-1.361-0.764-2.209-1.921-2.602-3.361c-1.301,4.377-0.867,8.107,2.179,9.801
				c4.347,2.413,9.4-1.861,13.122-8.543C931.166,456.563,932.81,452.098,931.68,448.888z"/>
			<path style="opacity:0.5;fill:#754C29;" d="M931.847,449.437c-0.368,2.607-1.669,5.618-3.414,8.76
				c-3.717,6.675-8.775,10.954-13.112,8.536c-1.503-0.83-2.35-2.166-2.693-3.818c-0.363,3.107,0.424,5.638,2.774,6.947
				c4.347,2.413,9.4-1.861,13.122-8.543C931.01,456.825,932.623,452.595,931.847,449.437z"/>
			<path style="fill:#8B5E3C;" d="M920.091,449.929c-1.211,1.535-2.017,3.222-2.723,5.008c-0.565,1.427-1.181,3.028-0.414,4.067
				c0.888,1.2,2.597,0.711,3.984-0.159c2.542-1.596,5.386-4.894,6.178-8.172c0.519-2.156-0.923-3.472-2.366-3.855
				C923.178,446.381,921.342,448.325,920.091,449.929z"/>
			<path style="fill:#D8B08A;" d="M921.846,448.474c-0.65,0.83-1.079,1.733-1.452,2.69c-0.303,0.764-0.635,1.629-0.222,2.189
				c0.474,0.638,1.382,0.376,2.128-0.096c1.372-0.853,2.895-2.622,3.318-4.387c0.282-1.153-0.499-1.856-1.255-2.065
				C923.505,446.578,922.522,447.617,921.846,448.474z"/>
		</g>
		<g>
			<path style="fill:#603913;" d="M943.708,467.345c0.096,9.181-2.637,16.645-8.608,16.713c-5.961,0.061-8.856-7.345-8.951-16.531
				c-0.086-9.179,1.528-16.635,8.618-16.711C941.827,450.738,943.617,458.17,943.708,467.345z"/>
			<path style="opacity:0.5;fill:#754C29;" d="M939.618,452.491c0.474,2.345,0.661,5.031,0.696,7.883
				c0.091,9.181-2.653,16.652-8.613,16.711c-1.866,0.022-3.43-0.696-4.7-1.962c1.256,5.345,3.913,8.982,8.099,8.936
				c5.971-0.068,8.704-7.532,8.608-16.713C943.647,460.807,942.709,455.174,939.618,452.491z"/>
			<path style="opacity:0.5;fill:#754C29;" d="M940.127,452.965c1.155,2.948,1.579,6.856,1.639,11.176
				c0.09,9.176-2.648,16.652-8.603,16.708c-2.068,0.023-3.747-0.862-5.094-2.386c1.483,3.45,3.798,5.631,7.03,5.595
				c5.971-0.068,8.704-7.532,8.608-16.713C943.647,461.173,942.815,455.807,940.127,452.965z"/>
			<path style="fill:#8B5E3C;" d="M928.14,460.464c-0.363,2.333-0.192,4.561,0.131,6.853c0.262,1.823,0.575,3.861,1.987,4.491
				c1.644,0.724,3.132-0.799,4.075-2.542c1.694-3.17,2.703-8.309,1.584-12.207c-0.736-2.552-3.026-3.061-4.751-2.615
				C929.265,454.937,928.483,458.048,928.14,460.464z"/>
			<path style="fill:#D8B08A;" d="M929.118,457.907c-0.192,1.251-0.101,2.451,0.081,3.676c0.131,0.976,0.292,2.073,1.059,2.408
				c0.877,0.383,1.674-0.429,2.178-1.369c0.918-1.695,1.462-4.453,0.847-6.546c-0.393-1.374-1.619-1.639-2.542-1.405
				C929.713,454.937,929.3,456.611,929.118,457.907z"/>
		</g>
		<g>
			<path style="fill:#603913;" d="M955.776,446.941c7.615,0.704,13.989-1.056,14.463-6.004c0.444-4.942-5.507-7.85-13.122-8.555
				c-7.605-0.703-13.908,0.131-14.448,6.004C942.119,444.248,948.171,446.237,955.776,446.941z"/>
			<path style="opacity:0.5;fill:#754C29;" d="M943.723,442.531c1.911,0.553,4.125,0.893,6.495,1.107
				c7.61,0.709,13.994-1.054,14.464-6.001c0.131-1.541-0.353-2.892-1.316-4.037c4.352,1.407,7.186,3.868,6.873,7.338
				c-0.474,4.948-6.848,6.708-14.463,6.004C950.355,446.439,945.74,445.28,943.723,442.531z"/>
			<path style="opacity:0.5;fill:#754C29;" d="M944.081,442.98c2.355,1.167,5.583,1.795,9.163,2.126
				c7.605,0.701,14-1.067,14.454-6.004c0.151-1.713-0.464-3.167-1.634-4.383c2.764,1.462,4.413,3.535,4.176,6.218
				c-0.474,4.948-6.848,6.708-14.463,6.004C950.652,446.465,946.265,445.403,944.081,442.98z"/>
			<path style="fill:#8B5E3C;" d="M951.131,433.544c1.957-0.126,3.798,0.159,5.674,0.59c1.488,0.333,3.167,0.733,3.596,1.951
				c0.479,1.407-0.883,2.534-2.396,3.202c-2.743,1.193-7.081,1.674-10.228,0.479c-2.068-0.784-2.34-2.718-1.855-4.12
				C946.461,434.104,949.099,433.678,951.131,433.544z"/>
			<path style="fill:#D8B08A;" d="M948.937,434.177c1.054-0.063,2.038,0.09,3.046,0.323c0.792,0.174,1.705,0.393,1.922,1.044
				c0.267,0.759-0.459,1.359-1.286,1.717c-1.467,0.646-3.797,0.903-5.487,0.262c-1.109-0.424-1.251-1.46-0.988-2.209
				C946.436,434.482,947.843,434.25,948.937,434.177z"/>
		</g>
		<g>
			<path style="fill:#603913;" d="M952.175,462.88c7.524,5.265,15.24,7.212,18.649,2.327c3.419-4.886-1.059-11.452-8.588-16.715
				c-7.529-5.26-14.6-8.135-18.654-2.328C939.527,451.961,944.656,457.622,952.175,462.88z"/>
			<path style="opacity:0.5;fill:#754C29;" d="M942.22,451.122c1.674,1.71,3.782,3.384,6.112,5.018
				c7.529,5.258,15.24,7.212,18.654,2.328c1.064-1.531,1.366-3.225,1.044-4.99c3.702,4.052,5.199,8.303,2.794,11.73
				c-3.409,4.885-11.125,2.938-18.649-2.327C946.82,459.135,942.694,455.184,942.22,451.122z"/>
			<path style="opacity:0.5;fill:#754C29;" d="M942.326,451.805c1.775,2.622,4.765,5.184,8.296,7.653
				c7.514,5.262,15.24,7.219,18.654,2.329c1.175-1.687,1.397-3.575,0.893-5.545c2.017,3.17,2.511,6.317,0.655,8.964
				c-3.409,4.885-11.125,2.938-18.649-2.327C947.102,459.342,943.158,455.625,942.326,451.805z"/>
			<path style="fill:#8B5E3C;" d="M955.282,446.142c2.118,1.023,3.873,2.423,5.577,3.979c1.362,1.245,2.865,2.655,2.592,4.183
				c-0.333,1.753-2.426,2.125-4.403,1.919c-3.575-0.383-8.387-2.459-10.958-5.585c-1.694-2.048-0.827-4.221,0.514-5.394
				C950.087,443.946,953.098,445.075,955.282,446.142z"/>
			<path style="fill:#D8B08A;" d="M952.619,445.499c1.15,0.56,2.083,1.301,2.996,2.146c0.716,0.666,1.533,1.42,1.382,2.239
				c-0.171,0.938-1.301,1.142-2.36,1.024c-1.922-0.199-4.498-1.306-5.88-2.988c-0.913-1.107-0.444-2.264,0.272-2.897
				C949.835,444.326,951.439,444.929,952.619,445.499z"/>
		</g>
	</g>
</g>
</svg>
